<?xml version="1.0" encoding="UTF-8" standalone="no"?>
<svg  data-name="Capa 1" xmlns="http://www.w3.org/2000/svg" viewBox="0 0 250 250"><defs><style>.cls-1{fill:#fff;}.cls-2{fill:#7bbe83;}</style></defs><circle class="cls-1" cx="125" cy="125" r="122.73"/><path class="cls-2" d="M79.61,101.73l.35-.11.64-.25,1.17-.55.13-.07c.32-.17.62-.33.93-.51a4.08,4.08,0,0,0,.33-.25l.25-.18.28-.21a6.65,6.65,0,0,0,.76-.82l.1-.09a1.33,1.33,0,0,1,.67-.39,4.92,4.92,0,0,0,1-.3l.31-.16.28-.15.37-.2c.3-.19.61-.42.84-.6l-.1-.23h0l.16.2.06,0c.31-.24.64-.51,1-.85a5.55,5.55,0,0,0,.48-.44l0,0,.21-.22.1-.12A12.59,12.59,0,0,0,91.53,93a19,19,0,0,0,1.35-3l.05-.1c.11-.28.21-.58.29-.83l0-.11v0A1.84,1.84,0,0,0,92.68,87a1.87,1.87,0,0,0-2-.24,7.91,7.91,0,0,1-.76.32c-.4.15-.75.27-1.05.35l-4.39-4.1a20.18,20.18,0,0,1-2-2.15,20.39,20.39,0,0,1-1.61-2.39c-.25-.44-.47-.87-.67-1.29l-.4-.85a33.86,33.86,0,0,1-2.21-5.21L76.4,66a3.21,3.21,0,0,0,.39-.52,12.38,12.38,0,0,1,3-3A1.89,1.89,0,0,0,78.72,59h0a23.38,23.38,0,0,0-9.59,1.82,20.71,20.71,0,0,0-2.6,1.51,7.35,7.35,0,0,1,.13-3.88,3.07,3.07,0,0,0,.13-2.34,3.06,3.06,0,0,0-5.65-.33,10.77,10.77,0,0,0-.91,4.89c-.22-.07-.43-.14-.66-.19C57.28,60,53.8,60.15,50.1,64a1.63,1.63,0,0,0,.62,2.65,6.58,6.58,0,0,1,2.35,1.64,9.6,9.6,0,0,0,2.42,1.81,28.73,28.73,0,0,0-3.66,5.72,1.89,1.89,0,0,0,2.58,2.5,12.32,12.32,0,0,1,4.05-1.42,3,3,0,0,0,.64-.12l4.41,3.44,0,0a27.7,27.7,0,0,1,7.71,11.34L73,97.35a8,8,0,0,1-1.39,1.34,1.87,1.87,0,0,0-.62.87,1.82,1.82,0,0,0,0,1.06,1.48,1.48,0,0,0,.17.42l0,.09.06.07a2.13,2.13,0,0,0,.28.33,1.84,1.84,0,0,0,1,.44c.31,0,.63.09.94.12h.18c.8.07,1.54.11,2.24.11.35,0,.68,0,1,0s.71-.05,1-.1a11,11,0,0,0,1.58-.32ZM60.69,66l-.14.07A18.05,18.05,0,0,0,57.65,68c-.18.14-.37.29-.56.46a6.6,6.6,0,0,1-2.54-1.72A9.86,9.86,0,0,0,52.2,65c2.22-2.09,4.59-2.92,6.87-2.4a3.57,3.57,0,0,1,1.39.66,18.09,18.09,0,0,0,.64,2.61Zm3.19-9.83a.9.9,0,0,1,.81,1.3A7.59,7.59,0,0,0,64.2,61a15.24,15.24,0,0,0,.48,2.91l-.07.08a4.18,4.18,0,0,1-1.47,1.1c-.84-2.6-1.18-6.14-.08-8.41a.89.89,0,0,1,.51-.46A.84.84,0,0,1,63.88,56.2ZM59,69.71A11.55,11.55,0,0,1,63,67.44a6.34,6.34,0,0,0,3.22-2,11.41,11.41,0,0,1,3.81-2.67,16.69,16.69,0,0,1,5-1.38c.91-.12,1.86-.2,2.83-.24a13.5,13.5,0,0,0-3,3.17,1.26,1.26,0,0,1-.37.4,1.58,1.58,0,0,1-.47.23,13.67,13.67,0,0,0-6.92,4.5,1.47,1.47,0,0,1-1,.6,11,11,0,0,0-3.87,1.59,14.9,14.9,0,0,0-3.19,2.68,1.85,1.85,0,0,1-.43.34,1.24,1.24,0,0,1-.5.15,12.83,12.83,0,0,0-4.13,1.32A20.1,20.1,0,0,1,59,69.71Zm7.64,2.44a3.61,3.61,0,0,0,2.33-1.46,11.57,11.57,0,0,1,5.5-3.62l1,4.81a29.51,29.51,0,0,0,7.51,13L86.33,88a3.94,3.94,0,0,0-.49.37l-.08.08a2,2,0,0,0-.33.32,6.52,6.52,0,0,1-2.86,2,4.25,4.25,0,0,1-.73.21l-.25,0,0,.22-2,1.24-.19-.13-.15.21a4.74,4.74,0,0,1-.87.9,6.72,6.72,0,0,1-2.71,1.35,3.31,3.31,0,0,0-1.09.47L73.3,91a29.61,29.61,0,0,0-8.46-12.42l-3.87-3A11.43,11.43,0,0,1,66.61,72.15Zm8.54,25.94c.13-.2.26-.4.37-.61a1,1,0,0,1,.69-.51c.2,0,.4-.12.61-.19L77,96.7a8.12,8.12,0,0,0,4.08-2.88,1.45,1.45,0,0,1,.84-.61l.07,0,.13,0a8.36,8.36,0,0,0,5-3,1,1,0,0,1,.76-.4A8.84,8.84,0,0,0,91,89a12.85,12.85,0,0,1-3.14,5.34c-.35.29-.65.54-.93.75l-.47.36a6.53,6.53,0,0,1-.7.44,2.74,2.74,0,0,1-.89.32,3.7,3.7,0,0,0-1.22.48l0,0a3.4,3.4,0,0,0-.89.84,2.94,2.94,0,0,1-.69.67,7.84,7.84,0,0,1-1.15.67c-.32.16-.68.33-1.22.57a13.2,13.2,0,0,1-6.12.48A9.7,9.7,0,0,0,75.15,98.09Z"/><path class="cls-2" d="M59.41,64.28a9.21,9.21,0,0,0-4.82-.57.92.92,0,0,0-.7,1.1,1,1,0,0,0,.41.58.9.9,0,0,0,.69.11,7.48,7.48,0,0,1,3.73.48,1,1,0,0,0,.34.07h.12L59.4,66l.19-.1a.92.92,0,0,0-.18-1.6Z"/><path class="cls-2" d="M99.32,123.63l27.06,12.88a2.81,2.81,0,0,0,1.21.27,2.81,2.81,0,0,0,2.54-1.6l13.47-28.31a10.09,10.09,0,0,0-4.77-13.45l-20.49-9.75A2.82,2.82,0,0,0,114.59,85L98.28,119.28l-.29.6a2.82,2.82,0,0,0,1.33,3.75Zm17.21-37.71a.68.68,0,0,1,.61-.38.55.55,0,0,1,.28.07L137.2,95a11.64,11.64,0,0,1-2,4.81,2.8,2.8,0,0,0-.39,2.61,2.84,2.84,0,0,0,1.94,1.78,11.43,11.43,0,0,1,4.63,2.44l-13.14,27.6a.64.64,0,0,1-.38.34.65.65,0,0,1-.51,0l-27.06-12.88a.66.66,0,0,1-.31-.89Zm20.34,15.18a13.56,13.56,0,0,0,2.29-5,7.88,7.88,0,0,1,3,8.47,13.62,13.62,0,0,0-4.93-2.43.67.67,0,0,1-.37-1Z"/><path class="cls-2" d="M110.4,109.59,130.17,119a1.28,1.28,0,0,0,.47.1,1.13,1.13,0,0,0,.36-.06,1.08,1.08,0,0,0,.6-.55,1.06,1.06,0,0,0-.5-1.43l-19.78-9.41a1.06,1.06,0,0,0-.82,0,1.1,1.1,0,0,0-.61.55A1.07,1.07,0,0,0,110.4,109.59Z"/><path class="cls-2" d="M108.27,114.05l19.78,9.42a1.06,1.06,0,0,0,.46.1,1.09,1.09,0,0,0,1-.61,1.07,1.07,0,0,0-.51-1.43l-19.77-9.41a1.07,1.07,0,0,0-.93,1.93Z"/><path class="cls-2" d="M106.15,118.51l19.78,9.41a1.07,1.07,0,0,0,.46.11,1.13,1.13,0,0,0,.36-.06,1.07,1.07,0,0,0,.61-.55,1.07,1.07,0,0,0-.51-1.43l-19.78-9.42a1.1,1.1,0,0,0-.82,0,1.13,1.13,0,0,0-.61.55,1.11,1.11,0,0,0,0,.82A1.07,1.07,0,0,0,106.15,118.51Z"/><path class="cls-2" d="M177.15,71.93a1.17,1.17,0,0,0-1.26-1,1.16,1.16,0,0,0-1,1.26,35.13,35.13,0,0,0,3.72,12.78,1.14,1.14,0,0,0,2.1-.26,1.13,1.13,0,0,0-.1-.88A32.35,32.35,0,0,1,177.15,71.93Z"/><path class="cls-2" d="M202.61,68.7a2.62,2.62,0,0,0-3,.94l-2.15,2.93a7.85,7.85,0,0,1-12.45.28,7.46,7.46,0,0,1-1.58-3.68l-.48-3.63a7.72,7.72,0,0,0-4.06-5.82l-.7-3.45a2.84,2.84,0,0,0-2.8-2.26h-.08l-1.09,0a2.82,2.82,0,0,0-2.69,2.47L171,60.09a7,7,0,0,0-1.13.92,3.28,3.28,0,0,0-.59.54l-.16.18a5.58,5.58,0,0,0-1.29,2.07,17.16,17.16,0,0,0-.33,2.64l-.28,19.72a8,8,0,0,1-4,6.79,8.1,8.1,0,0,1-3.85,1h-1.54a2.67,2.67,0,0,0-1.61,4.77,13.44,13.44,0,0,0,15,1.07l2.44-1.4h.25V98.3l1.24-.7a12.4,12.4,0,0,0,6.15-9,.53.53,0,0,1,.24-.36.51.51,0,0,1,.43-.06A14.61,14.61,0,0,0,193.76,87l1.55-.88a18.07,18.07,0,0,0,5.6-5l0,0,.23-.33a22.73,22.73,0,0,0,2.08-4,.76.76,0,0,0,.08-.16l.12-.36v0a17.94,17.94,0,0,0,.92-4.82A2.62,2.62,0,0,0,202.61,68.7Zm-.53,2.53a15.23,15.23,0,0,1-.92,4.57,30.61,30.61,0,0,1-1.71,3.38,15.9,15.9,0,0,1-5.27,4.92l-1.56.88a12.28,12.28,0,0,1-9.93,1A2.81,2.81,0,0,0,179,88.24a10.12,10.12,0,0,1-5,7.36l-.32.19A37.52,37.52,0,0,1,167,99,11.1,11.1,0,0,1,157.68,97a.35.35,0,0,1-.13-.41.36.36,0,0,1,.34-.25h1.55a10.26,10.26,0,0,0,10.12-10.1l.28-19.71a12.31,12.31,0,0,1,.2-1.93,5.42,5.42,0,0,1,1.25-1.7l.05,0a5,5,0,0,1,1-.83,5.44,5.44,0,0,1,2.9-.85,5.49,5.49,0,0,1,2.3.51,5.43,5.43,0,0,1,3.08,4.2l.48,3.63a9.75,9.75,0,0,0,2.07,4.82,10.06,10.06,0,0,0,3,2.55l.5.2a10,10,0,0,0,9.39-.3,10,10,0,0,0,3.15-2.81L201.43,71a.32.32,0,0,1,.41-.13A.33.33,0,0,1,202.08,71.23Zm-26.19-14.5.44,2.18a7.55,7.55,0,0,0-2.84.13l.28-2.23a.52.52,0,0,1,.5-.46l1.11,0A.51.51,0,0,1,175.89,56.73Z"/><path class="cls-2" d="M165.4,138.21a5.68,5.68,0,0,0-5.68,5.68v2.6H90.28v-2.6a5.68,5.68,0,0,0-11.36,0v58A1.11,1.11,0,0,0,80,203h90a1.11,1.11,0,0,0,1.1-1.11v-58A5.69,5.69,0,0,0,165.4,138.21Zm3.48,5.68v56.87h-7V143.89a3.48,3.48,0,1,1,7,0Zm-9.16,41v15.89H90.28V184.87Zm0-18.09v15.89H90.28V166.78Zm0-18.09v15.89H90.28V148.69Zm-71.64-4.8v56.87h-7V143.89a3.48,3.48,0,0,1,7,0Z"/></svg>