<?xml version="1.0" encoding="UTF-8" standalone="no"?>
<svg  data-name="Capa 1" xmlns="http://www.w3.org/2000/svg" viewBox="0 0 250 250"><defs><style>.cls-1{fill:#fff;}.cls-2{fill:#7bbd82;}</style></defs><circle class="cls-1" cx="125" cy="125" r="122.73"/><path class="cls-2" d="M159.92,100.46a2,2,0,1,0-2-2A2,2,0,0,0,159.92,100.46Z"/><path class="cls-2" d="M105.13,129.86a2,2,0,1,0,2-2A2,2,0,0,0,105.13,129.86Z"/><path class="cls-2" d="M97.34,156.32a2,2,0,1,0,2-2A2,2,0,0,0,97.34,156.32Z"/><path class="cls-2" d="M124,107.45a2,2,0,1,0,2-2A2,2,0,0,0,124,107.45Z"/><path class="cls-2" d="M139.38,123.92a2,2,0,1,0,2-2A2,2,0,0,0,139.38,123.92Z"/><path class="cls-2" d="M84.34,139.3A5.39,5.39,0,0,0,88,130l-1.75-1.63,44.4-47.7,1.76,1.63a5.38,5.38,0,0,0,7.34-7.88L99.87,37.26a1.07,1.07,0,0,0-1.52.05L40.73,99.19a1.07,1.07,0,0,0-.29.78,1,1,0,0,0,.35.75l39.88,37.13A5.37,5.37,0,0,0,84.34,139.3Zm.33-12.44L73.81,116.75l44.41-47.7,10.86,10.12ZM72.23,115.27,61.36,105.16l44.41-47.69,10.86,10.11Zm27-75.69L138.28,76a3.22,3.22,0,0,1-2.08,5.58h-.12a3.24,3.24,0,0,1-2.19-.86L94.8,44.29Zm-5.86,6.3L104.19,56,59.78,103.68,48.92,93.57ZM47.44,95.15l39.1,36.4a3.24,3.24,0,0,1,.16,4.56,3.2,3.2,0,0,1-2.25,1h-.11a3.2,3.2,0,0,1-2.2-.86L43.05,99.87Z"/><path class="cls-2" d="M172.67,175.34a16.19,16.19,0,0,0-5.81,1,16.3,16.3,0,0,0-10.92-9.63V147.2a5.19,5.19,0,0,1,3.5-4.86,9.76,9.76,0,0,0,8.88,5.49,15.07,15.07,0,0,0,8.42-2.67,13.81,13.81,0,0,1,5.6-2.24,2.15,2.15,0,0,0,1.66-1.19,2.12,2.12,0,0,0-.08-2c-5.12-8.61-11.31-10.41-15.6-10.41a9.84,9.84,0,0,0-8.45,4.68,13.3,13.3,0,0,0-11,7.85,13.25,13.25,0,0,0-4.43-1.44,9.81,9.81,0,0,0-8.8-5.32,15.16,15.16,0,0,0-8,2.26c-.13.08-2.33,1.7-2.46,1.79s-1.74,1.69-1.75,1.7a28.4,28.4,0,0,0-3.42,4.65,2.15,2.15,0,0,0,1.57,3.23,13.74,13.74,0,0,1,5.61,2.24,15,15,0,0,0,8.42,2.67,9.78,9.78,0,0,0,8.59-4.92,5.08,5.08,0,0,1,3.5,4.86v13.15a16.45,16.45,0,0,0-12.23,13.18,16.46,16.46,0,0,0-10.78,0A16.37,16.37,0,0,0,97,176.53a16.12,16.12,0,0,0-2.39-.18A16.41,16.41,0,0,0,78.2,192.68L78.13,197a1.09,1.09,0,0,0,1.09,1.1l108.61.26a1.1,1.1,0,0,0,1.1-1.1l.08-5.53A16.39,16.39,0,0,0,172.67,175.34Zm-11.94-37.16,0-.25a.49.49,0,0,0,0-.12,2,2,0,0,1,0-.24s0-.08,0-.12,0-.18.05-.26l0-.1c0-.09.05-.18.07-.27l0-.08c0-.09.05-.18.08-.28l0-.06c0-.09.06-.19.1-.28v0a7.64,7.64,0,0,1,7.13-4.66c5.36,0,10.12,3.24,13.76,9.38a15.82,15.82,0,0,0-6.42,2.52,13.05,13.05,0,0,1-7.34,2.38,7.54,7.54,0,0,1-7.24-5l-.05-.14c0-.05,0-.11-.05-.16a.83.83,0,0,0,0-.15c0-.06,0-.11,0-.17l0-.14-.06-.29v-.11l0-.23s0-.07,0-.11,0-.15,0-.22v-.11c0-.11,0-.22,0-.33S160.72,138.31,160.73,138.18Zm-17.45,6.51,0,.17a1.09,1.09,0,0,1,0,.18.5.5,0,0,1,0,.12v.05l0,.18,0,.14c0,.07,0,.14,0,.21l0,.1v0c0,.06,0,.13,0,.2l0,.09-.14.43a.78.78,0,0,1,0,.14l-.06.15a7.67,7.67,0,0,1-7.09,4.58,13.05,13.05,0,0,1-7.34-2.38,15.81,15.81,0,0,0-6.43-2.52v0a28.67,28.67,0,0,1,3.1-4.23,17.67,17.67,0,0,1,3.84-3.2,13.21,13.21,0,0,1,6.83-1.93,7.64,7.64,0,0,1,7.11,4.62,1.21,1.21,0,0,1,0,.14l0,.05a.42.42,0,0,0,0,.1l0,.05a1.09,1.09,0,0,0,0,.17l.09.32c0,.05,0,.1,0,.15l0,.18,0,.16v.05a.5.5,0,0,0,0,.12s0,.1,0,.15l0,.19a.91.91,0,0,1,0,.17l0,.17c0,.12,0,.23,0,.35S143.28,144.57,143.28,144.69Zm1.81,2,0-.09c.07-.28.13-.56.18-.82,0,0,0-.06,0-.09,0-.27.07-.56.09-.85v-.09c0-.15,0-.29,0-.43s0-.32,0-.47a.41.41,0,0,1,0-.11v-.16c0-.07,0-.13,0-.19s0-.11,0-.16l0-.13c0-.06,0-.12,0-.17s0-.15,0-.23v0a11,11,0,0,1,3.6,1.58,1.06,1.06,0,0,0,1.61-.55,11.15,11.15,0,0,1,8.42-7.46,8.9,8.9,0,0,0-.28,1.79v.08c0,.14,0,.29,0,.43s0,.32,0,.47a9.1,9.1,0,0,0,.17,1.29,7.26,7.26,0,0,0-5,6.88v19.14a15.76,15.76,0,0,0-2.07-.14,13.84,13.84,0,0,0-1.83.11V153.54A7.25,7.25,0,0,0,145.09,146.7Zm41.64,49.48-106.4-.25h0l.07-3.24a14.18,14.18,0,0,1,16.88-13.88,1.11,1.11,0,0,0,1.1-.44,14.17,14.17,0,0,1,24.76,3.3,1.1,1.1,0,0,0,1.46.62,14.25,14.25,0,0,1,11.42.13,1.09,1.09,0,0,0,1,0,1.11,1.11,0,0,0,.54-.87,14.17,14.17,0,0,1,27.61-3.31,1.1,1.1,0,0,0,1.51.66,13.87,13.87,0,0,1,6-1.31,14.19,14.19,0,0,1,14.14,14.21Z"/><path class="cls-2" d="M140,142.74c-4.4-.71-10.66-.11-12.7.87a1.07,1.07,0,0,0,.47,2,1.11,1.11,0,0,0,.46-.11c1.38-.66,7-1.39,11.43-.69a1,1,0,0,0,.79-.19,1.06,1.06,0,0,0-.45-1.91Z"/><path class="cls-2" d="M164.35,139.08c4.41-.71,10.05,0,11.43.68a1.07,1.07,0,0,0,.46.11,1.07,1.07,0,0,0,.47-2h0c-2-1-8.29-1.57-12.69-.87a1.07,1.07,0,0,0,.34,2.11Z"/><path class="cls-2" d="M173,182.31a1.1,1.1,0,1,0-.47,2.15,9.47,9.47,0,0,1,6.61,5.45,1.09,1.09,0,0,0,.77.63,1.09,1.09,0,0,0,1.24-1.51A11.68,11.68,0,0,0,173,182.31Z"/></svg>