<?xml version="1.0" encoding="UTF-8" standalone="no"?>
<svg  data-name="Capa 1" xmlns="http://www.w3.org/2000/svg" viewBox="0 0 250 250"><defs><style>.cls-1{fill:#fff;}.cls-2{fill:#7bbe83;}</style></defs><circle class="cls-1" cx="125" cy="125" r="122.73"/><path class="cls-2" d="M177.71,101.49a7.1,7.1,0,0,0-5.46,2.53,14.34,14.34,0,0,0-18.52-9.2,14.21,14.21,0,0,0-3.46-4.88c.23-.35.58-.91.93-1.5l6-10.44a1.26,1.26,0,0,0-.44-1.7l-3.42-2.07,2.45-3.87A5.13,5.13,0,0,0,159.61,68l8.69-13.71a5.09,5.09,0,0,0-8.6-5.45L151,62.57a5.1,5.1,0,0,0-.45,4.54L148.07,71l-2.91-1.77a1.26,1.26,0,0,0-1.69.37l-7.07,10.3a11.36,11.36,0,0,0-1.93,5.32,9.06,9.06,0,0,0,.1,2.22,14.34,14.34,0,0,0-8.12,10.39,14.41,14.41,0,0,0-9,0,14.34,14.34,0,0,0-24.13-2.77A14.31,14.31,0,0,0,78,104.32a7.17,7.17,0,0,0-12.87,4.34v75.65a1.19,1.19,0,0,0,1.2,1.19H183.68a1.19,1.19,0,0,0,1.2-1.19V108.66A7.18,7.18,0,0,0,177.71,101.49Zm0,2.39a4.79,4.79,0,0,1,4.78,4.78v74.45h-9.56V108.66A4.78,4.78,0,0,1,177.71,103.88Zm-30-25.52a.55.55,0,1,1-.93-.59l5.38-8.48a4.83,4.83,0,0,0,.77.5l.16.08Zm-3.05-1.93a3.06,3.06,0,0,0,3.26,4.63,3,3,0,0,0,1.92-1.35L152,76.35l2.41,1.47L149,87.19c-.21.37-.45.75-.75,1.21a14.09,14.09,0,0,0-4.84-2L145.71,83,143.6,81.6l-3,4.55h-.06a14.25,14.25,0,0,0-3.61.47,8.91,8.91,0,0,1,1.54-5.26L144.87,72l1.85,1.13ZM153,64.09l.1-.17,8.69-13.71a2.57,2.57,0,0,1,4.44,2.58,1,1,0,0,1-.1.17l-8.68,13.71A2.57,2.57,0,0,1,153,64.09Zm17.5,44.23v4H79.46v-3a12,12,0,0,1,12-11.94,12.16,12.16,0,0,1,2.25.21,1.18,1.18,0,0,0,1.19-.48,12,12,0,0,1,20.88,2.73,1.22,1.22,0,0,0,.66.68,1.18,1.18,0,0,0,.94,0,12,12,0,0,1,9.62.09,1.21,1.21,0,0,0,1.69-1,11.95,11.95,0,0,1,23.27-2.85,1.17,1.17,0,0,0,.66.73,1.2,1.2,0,0,0,1,0,11.8,11.8,0,0,1,5-1.11A12,12,0,0,1,170.54,108.32Zm0,6.36V135.9H79.46V114.68Zm0,23.61V159.5H79.46V138.29Zm0,23.61v21.21H79.46V161.9ZM77.07,108.66v74.45H67.51V108.66a4.78,4.78,0,1,1,9.56,0Z"/><path class="cls-2" d="M140.51,92.14a1.24,1.24,0,0,0-1.47.94,1.24,1.24,0,0,0,.94,1.47,8.21,8.21,0,0,1,5.73,4.72,1.23,1.23,0,0,0,1.13.74,1.19,1.19,0,0,0,.49-.1,1.22,1.22,0,0,0,.64-1.62A10.68,10.68,0,0,0,140.51,92.14Z"/><path class="cls-2" d="M105.51,96.24a1.24,1.24,0,0,0-1.47.94,1.23,1.23,0,0,0,.93,1.47,8.21,8.21,0,0,1,5.74,4.73,1.22,1.22,0,0,0,.86.71,1.17,1.17,0,0,0,.76-.08,1.21,1.21,0,0,0,.65-.68,1.23,1.23,0,0,0,0-.94A10.67,10.67,0,0,0,105.51,96.24Z"/><path class="cls-2" d="M136.75,103.29a1.93,1.93,0,1,0,1.93,1.93A1.93,1.93,0,0,0,136.75,103.29Z"/><path class="cls-2" d="M120.93,90.3A1.94,1.94,0,1,0,119,88.37,1.93,1.93,0,0,0,120.93,90.3Z"/><path class="cls-2" d="M90.75,89.62a1.93,1.93,0,1,0-1.94-1.93A1.94,1.94,0,0,0,90.75,89.62Z"/></svg>